<svg width="1440" height="316" viewBox="0 0 1440 316" fill="none" xmlns="http://www.w3.org/2000/svg">
<path d="M432.754 253.293C342.785 236.773 191.497 251.291 0 295.845V13H1440V283.831C1397.28 252.793 1312.33 229.765 1220.36 253.293C1128.38 276.822 900.691 323.88 801.675 314.869C702.66 305.858 522.722 269.814 432.754 253.293Z" fill="#E5E5E5" fill-opacity="0.29"/>
<path d="M432.754 239.293C342.785 222.773 191.497 237.291 0 281.845V-1H1440V269.831C1397.28 238.793 1312.33 215.765 1220.36 239.293C1128.38 262.822 900.691 309.88 801.675 300.869C702.66 291.858 522.722 255.814 432.754 239.293Z" fill="url(#paint0_linear)"/>
<defs>
<linearGradient id="paint0_linear" x1="720" y1="-1" x2="720" y2="302" gradientUnits="userSpaceOnUse">
<stop stop-color="#298DFF"/>
<stop offset="1" stop-color="#0064D6"/>
</linearGradient>
</defs>
</svg>
